# xmcd
#
# Track frame offsets: 
#        150
#        19625
#        37572
#        57255
#        74103
#        93370
#        117102
#        135374
#        155375
#        172474
#        192529
#        215704
#        233125
#
# Disc length: 3366 seconds
#
# Revision: 3
# Processed by: cddbd v1.5.2PL0 Copyright (c) Steve Scherf et al.
# Submitted via: ExactAudioCopy v1.0b2
#
DISCID=b50d240d
DTITLE=黃乙玲 - 感謝無情人
DYEAR=1998
DGENRE=Pop
TTITLE0=感謝無情人
TTITLE1=Radio的點歌心情
TTITLE2=台北Sayonara
TTITLE3=無彩工
TTITLE4=我想你不是真心愛我
TTITLE5=放開阮的手
TTITLE6=甘講你嘸知(悲情版)
TTITLE7=找無你
TTITLE8=愛你到350歲
TTITLE9=再會啦
TTITLE10=夢是自己的
TTITLE11=甘講你嘸知(溫情版)
TTITLE12=感謝無情人(Kala)
EXTD=
EXTT0=
EXTT1=
EXTT2=
EXTT3=
EXTT4=
EXTT5=
EXTT6=
EXTT7=
EXTT8=
EXTT9=
EXTT10=
EXTT11=
EXTT12=
PLAYORDER=
